<svg xmlns="http://www.w3.org/2000/svg" xmlns:xlink="http://www.w3.org/1999/xlink" width="2000" zoomAndPan="magnify" viewBox="0 0 1500 1499.999933" height="2000" preserveAspectRatio="xMidYMid meet" version="1.0"><defs><clipPath id="b9a690583b"><path d="M 80.0625 85 L 516 85 L 516 1061 L 80.0625 1061 Z M 80.0625 85 " clip-rule="nonzero"/></clipPath><clipPath id="9b5f67cc95"><path d="M 80.0625 75 L 1420 75 L 1420 1415 L 80.0625 1415 Z M 80.0625 75 " clip-rule="nonzero"/></clipPath></defs><rect x="-150" width="1800" fill="#ffffff" y="-149.999993" height="1799.99992" fill-opacity="1"/><rect x="-150" width="1800" fill="#ffffff" y="-149.999993" height="1799.99992" fill-opacity="1"/><path fill="#10b981" d="M 980.519531 947.242188 L 1416.035156 947.242188 L 1416.035156 1425 L 980.519531 1425 Z M 980.519531 947.242188 " fill-opacity="1" fill-rule="nonzero"/><g clip-path="url(#b9a690583b)"><path fill="#10b981" d="M 515.984375 606.550781 L 515.984375 85.941406 L 80.46875 85.941406 L 80.46875 1060.148438 C 165.871094 861.539062 321.019531 700.003906 515.984375 606.550781 Z M 515.984375 606.550781 " fill-opacity="1" fill-rule="nonzero"/></g><g clip-path="url(#9b5f67cc95)"><path fill="#10b981" d="M 515.984375 1403.269531 L 80.46875 1414.058594 C 80.46875 975.203125 425.113281 613.542969 863.359375 592.417969 L 984.015625 586.644531 L 984.015625 75 L 1419.53125 75 L 1419.53125 869.742188 L 1060.453125 869.742188 C 763.980469 869.742188 522.0625 1106.796875 515.984375 1403.269531 Z M 515.984375 1403.269531 " fill-opacity="1" fill-rule="nonzero"/></g></svg>